<?xml version="1.0" encoding="UTF-8" standalone="no"?>
<!DOCTYPE svg PUBLIC "-//W3C//DTD SVG 1.1//EN" "http://www.w3.org/Graphics/SVG/1.1/DTD/svg11.dtd">
<svg xmlns="http://www.w3.org/2000/svg" xmlns:xlink="http://www.w3.org/1999/xlink" version="1.1" width="475.5911pt" height="158.50232pt" viewBox="0 0 475.5911 158.50232">
<g enable-background="new">
<clipPath id="cp0">
<path transform="matrix(1,0,0,-1,-69.80398,746.0218)" d="M 0 0 L 612 0 L 612 792 L 0 792 Z "/>
</clipPath>
<g clip-path="url(#cp0)">
<path transform="matrix(1,0,0,-1,-69.80398,746.0218)" d="M 0 0 L 612 0 L 612 792 L 0 792 Z " fill="#ffffff"/>
<g id="Layer-1" data-name="P">
<path transform="matrix(1,0,0,-1,-69.80398,746.0218)" d="M 84.87766 697.4063 L 137.317 697.4063 C 140.0159 697.4063 141.6352 697.4063 142.7147 696.9556 C 144.271 696.3891 145.4969 695.1632 146.0634 693.6069 C 146.5141 692.5274 146.5141 690.9081 146.5141 688.2092 L 146.5141 670.2531 C 146.5141 667.5542 146.5141 665.9349 146.0634 664.8554 C 145.4969 663.2991 144.271 662.0731 142.7147 661.5067 C 141.6352 661.056 140.0159 661.056 137.317 661.056 L 84.87766 661.056 C 82.17878 661.056 80.55945 661.056 79.4799 661.5067 C 77.92363 662.0731 76.6977 663.2991 76.13126 664.8554 C 75.68056 665.9349 75.68056 667.5542 75.68056 670.2531 L 75.68056 688.2092 C 75.68056 690.9081 75.68056 692.5274 76.13126 693.6069 C 76.6977 695.1632 77.92363 696.3891 79.4799 696.9556 C 80.55945 697.4063 82.17878 697.4063 84.87766 697.4063 Z M 84.87766 697.4063 " fill="#ffffff"/>
<path transform="matrix(1,0,0,1,5.8765795,48.61548)" stroke-width="2" stroke-linecap="butt" stroke-miterlimit="4" stroke-linejoin="miter" fill="none" stroke="#000000" d="M 9.1971 0 L 61.6364 0 C 64.33529 0 65.95462 0 67.03417 .4506988 C 68.59044 1.017134 69.81637 2.243067 70.3828 3.799336 C 70.8335 4.878889 70.8335 6.498218 70.8335 9.1971 L 70.8335 27.15317 C 70.8335 29.85205 70.8335 31.47138 70.3828 32.55093 C 69.81637 34.1072 68.59044 35.33313 67.03417 35.89957 C 65.95462 36.35027 64.33529 36.35027 61.6364 36.35027 L 9.1971 36.35027 C 6.498218 36.35027 4.878889 36.35027 3.799336 35.89957 C 2.243067 35.33313 1.017134 34.1072 .4506988 32.55093 C 0 31.47138 0 29.85205 0 27.15317 L 0 9.1971 C 0 6.498218 0 4.878889 .4506988 3.799336 C 1.017134 2.243067 2.243067 1.017134 3.799336 .4506988 C 4.878889 0 6.498218 0 9.1971 0 Z M 9.1971 0 "/>
</g>
<g id="Layer-1" data-name="P">
</g>
<clipPath id="cp1">
<path transform="matrix(1,0,0,-1,-69.80398,746.0218)" d="M 75.68056 661.056 L 146.51407 661.056 L 146.51407 697.4063 L 75.68056 697.4063 Z "/>
</clipPath>
<g clip-path="url(#cp1)">
<text xml:space="preserve" transform="matrix(1 0 -0 1 22.360909 70.0813)" font-size="11" font-family="TimesNewRomanPSMT"><tspan y="0" x="0 6.118201 9.7812 15.2812 20.7812 24.4442 29.326003">Program</tspan></text>
</g>
<g id="Layer-1" data-name="P">
</g>
<clipPath id="cp2">
<path transform="matrix(1,0,0,-1,-69.80398,746.0218)" d="M 0 0 L 612 0 L 612 792 L 0 792 Z "/>
</clipPath>
<g clip-path="url(#cp2)">
<path transform="matrix(1,0,0,-1,-69.80398,746.0218)" d="M 205.1639 743.4572 L 263.8152 743.4572 L 263.8152 703.3477 L 205.1639 703.3477 L 205.1639 743.4572 Z M 205.1639 743.4572 " fill="#ffffff"/>
<path transform="matrix(1,0,0,1,135.35993,2.5645753)" stroke-width="2" stroke-linecap="butt" stroke-miterlimit="4" stroke-linejoin="miter" fill="none" stroke="#000000" d="M 0 0 L 58.65131 0 L 58.65131 40.1095 L 0 40.1095 L 0 0 Z M 0 0 "/>
</g>
<g id="Layer-1" data-name="P">
</g>
<clipPath id="cp3">
<path transform="matrix(1,0,0,-1,-69.80398,746.0218)" d="M 206.1639 704.3477 L 262.81523 704.3477 L 262.81523 742.4572 L 206.1639 742.4572 Z "/>
</clipPath>
<g clip-path="url(#cp3)">
<text xml:space="preserve" transform="matrix(1 0 -0 1 152.28363 27.366578)" font-size="13" font-family="HelveticaNeue"><tspan y="0" x="0 8.6710009 18.057002">PCs</tspan></text>
</g>
<g id="Layer-1" data-name="P">
</g>
<clipPath id="cp4">
<path transform="matrix(1,0,0,-1,-69.80398,746.0218)" d="M 0 0 L 612 0 L 612 792 L 0 792 Z "/>
</clipPath>
<g clip-path="url(#cp4)">
<path transform="matrix(1,0,0,-1,-69.80398,746.0218)" d="M 199.8472 739.1234 L 258.4985 739.1234 L 258.4985 699.0139 L 199.8472 699.0139 L 199.8472 739.1234 Z M 199.8472 739.1234 " fill="#ffffff"/>
<path transform="matrix(1,0,0,1,130.04322,6.8983767)" stroke-width="2" stroke-linecap="butt" stroke-miterlimit="4" stroke-linejoin="miter" fill="none" stroke="#000000" d="M 0 0 L 58.65131 0 L 58.65131 40.1095 L 0 40.1095 L 0 0 Z M 0 0 "/>
</g>
<g id="Layer-1" data-name="P">
</g>
<clipPath id="cp5">
<path transform="matrix(1,0,0,-1,-69.80398,746.0218)" d="M 200.8472 700.0139 L 257.4985 700.0139 L 257.4985 738.1234 L 200.8472 738.1234 Z "/>
</clipPath>
<g clip-path="url(#cp5)">
<text xml:space="preserve" transform="matrix(1 0 -0 1 146.96683 31.700379)" font-size="13" font-family="HelveticaNeue"><tspan y="0" x="0 8.6710009 18.057002">PCs</tspan></text>
</g>
<g id="Layer-1" data-name="P">
</g>
<clipPath id="cp6">
<path transform="matrix(1,0,0,-1,-69.80398,746.0218)" d="M 0 0 L 612 0 L 612 792 L 0 792 Z "/>
</clipPath>
<g clip-path="url(#cp6)">
<path transform="matrix(1,0,0,-1,-69.80398,746.0218)" d="M 193.8411 734.1003 L 252.4924 734.1003 L 252.4924 693.9908 L 193.8411 693.9908 L 193.8411 734.1003 Z M 193.8411 734.1003 " fill="#ffffff"/>
<path transform="matrix(1,0,0,1,124.03712,11.921509)" stroke-width="2" stroke-linecap="butt" stroke-miterlimit="4" stroke-linejoin="miter" fill="none" stroke="#000000" d="M 0 0 L 58.65131 0 L 58.65131 40.1095 L 0 40.1095 L 0 0 Z M 0 0 "/>
</g>
<g id="Layer-1" data-name="P">
</g>
<clipPath id="cp7">
<path transform="matrix(1,0,0,-1,-69.80398,746.0218)" d="M 194.8411 694.9908 L 251.4924 694.9908 L 251.4924 733.1003 L 194.8411 733.1003 Z "/>
</clipPath>
<g clip-path="url(#cp7)">
<text xml:space="preserve" transform="matrix(1 0 -0 1 144.49512 35.074769)" font-size="11" font-family="TimesNewRomanPSMT"><tspan y="0" x="0 6.118201 13.455202">PCs</tspan></text>
</g>
<g id="Layer-1" data-name="P">
</g>
<clipPath id="cp8">
<path transform="matrix(1,0,0,-1,-69.80398,746.0218)" d="M 0 0 L 612 0 L 612 792 L 0 792 Z "/>
</clipPath>
<g clip-path="url(#cp8)">
<path transform="matrix(1,0,0,-1,-69.80398,746.0218)" d="M 197.7118 668.4259 L 260.6338 668.4259 L 260.6338 628.3164 L 197.7118 628.3164 L 197.7118 668.4259 Z M 197.7118 668.4259 " fill="#ffffff"/>
<path transform="matrix(1,0,0,1,127.90783,77.59589)" stroke-width="2" stroke-linecap="butt" stroke-miterlimit="4" stroke-linejoin="miter" fill="none" stroke="#000000" d="M 0 0 L 62.92203 0 L 62.92203 40.1095 L 0 40.1095 L 0 0 Z M 0 0 "/>
</g>
<g id="Layer-1" data-name="P">
</g>
<g id="Layer-1" data-name="P">
</g>
<clipPath id="cp9">
<path transform="matrix(1,0,0,-1,-69.80398,746.0218)" d="M 218.4295 641.8145 L 238.51383 641.8145 L 238.51383 651.95327 L 218.4295 651.95327 Z "/>
</clipPath>
<g clip-path="url(#cp9)">
<text xml:space="preserve" transform="matrix(1 0 -0 1 149.48761 112.08276)" font-size="11.49514" font-family="STIXGeneral" font-style="italic"><tspan y="-10.24348" x="0">p</tspan></text>
<text xml:space="preserve" transform="matrix(1 0 -0 1 149.48761 112.08276)" font-size="11.49514" font-family="STIXGeneral"><tspan y="-10.24348" x="6.816687">(</tspan></text>
<text xml:space="preserve" transform="matrix(1 0 -0 1 149.48761 112.08276)" font-size="11.49514" font-family="STIXGeneral" font-style="italic"><tspan y="-10.24348" x="10.64457">x</tspan></text>
<text xml:space="preserve" transform="matrix(1 0 -0 1 149.48761 112.08276)" font-size="11.49514" font-family="STIXGeneral"><tspan y="-10.24348" x="15.93457">)</tspan></text>
</g>
<g id="Layer-1" data-name="P">
</g>
<clipPath id="cp10">
<path transform="matrix(1,0,0,-1,-69.80398,746.0218)" d="M 0 0 L 612 0 L 612 792 L 0 792 Z "/>
</clipPath>
<g clip-path="url(#cp10)">
<path transform="matrix(1,0,0,-1,-69.80398,746.0218)" d="M 308.6112 743.3071 L 483.2818 743.3071 L 483.2818 615.1552 L 308.6112 615.1552 L 308.6112 743.3071 Z M 308.6112 743.3071 " fill="#807f80" fill-opacity=".2"/>
<path transform="matrix(1,0,0,1,238.80722,2.7146607)" stroke-width="2" stroke-linecap="butt" stroke-dasharray="4,4" stroke-miterlimit="4" stroke-linejoin="miter" fill="none" stroke="#000000" d="M 0 0 L 174.6706 0 L 174.6706 128.1519 L 0 128.1519 L 0 0 Z M 0 0 "/>
</g>
<g id="Layer-1" data-name="P">
<path transform="matrix(.7071068,-.7071068,.7071068,.7071068,83.93792,63.945009)" stroke-width="2" stroke-linecap="butt" stroke-miterlimit="4" stroke-linejoin="miter" fill="none" stroke="#000000" d="M 0 0 L 42.2233 0 L 43.2233 0 "/>
<path transform="matrix(1,0,0,-1,-69.80398,746.0218)" d="M 186.9924 708.5391 L 190.3865 718.7214 L 180.2042 715.3273 Z "/>
</g>
<g id="Layer-1" data-name="P">
<path transform="matrix(.6593514,.7518349,-.7518349,.6593514,83.902019,63.580018)" stroke-width="2" stroke-linecap="butt" stroke-miterlimit="4" stroke-linejoin="miter" fill="none" stroke="#000000" d="M 0 0 L 35.36166 0 L 36.36166 0 "/>
<path transform="matrix(1,0,0,-1,-69.80398,746.0218)" d="M 173.4129 652.6908 L 183.3515 648.6381 L 180.6305 659.0206 Z "/>
</g>
<g id="Layer-1" data-name="P">
<path transform="matrix(1,0,0,1,196.84272,26.953186)" stroke-width="2" stroke-linecap="butt" stroke-miterlimit="4" stroke-linejoin="miter" fill="none" stroke="#000000" d="M 0 0 L 27.74513 0 L 28.74513 0 "/>
<path transform="matrix(1,0,0,-1,-69.80398,746.0218)" d="M 294.3918 714.2686 L 303.9918 719.0686 L 294.3918 723.8686 Z "/>
</g>
<g id="Layer-1" data-name="P">
<path transform="matrix(1,0,0,1,195.25202,97.65057)" stroke-width="2" stroke-linecap="butt" stroke-miterlimit="4" stroke-linejoin="miter" fill="none" stroke="#000000" d="M 0 0 L 27.74513 0 L 28.74513 0 "/>
<path transform="matrix(1,0,0,-1,-69.80398,746.0218)" d="M 292.8011 643.5712 L 302.4011 648.3712 L 292.8011 653.1712 Z "/>
</g>
<g id="Layer-1" data-name="P">
<path transform="matrix(1,0,0,1,418.17863,65.2608)" stroke-width="2" stroke-linecap="butt" stroke-miterlimit="4" stroke-linejoin="miter" fill="none" stroke="#000000" d="M 0 0 L 27.74513 0 L 28.74513 0 "/>
<path transform="matrix(1,0,0,-1,-69.80398,746.0218)" d="M 515.7277 675.961 L 525.3277 680.761 L 515.7277 685.561 Z "/>
</g>
<g id="Layer-1" data-name="P">
</g>
<g id="Layer-1" data-name="P">
<path transform="matrix(1,0,0,1,6.2675859,139.13202)" stroke-width="2" stroke-linecap="butt" stroke-miterlimit="4" stroke-linejoin="miter" fill="none" stroke="#000000" d="M 1.48 0 L 2.48 0 L 199.7059 0 L 200.7059 0 "/>
<path transform="matrix(0,-1.6,1.6,0,207.25351,143.932)" stroke-width="1.25" stroke-linecap="butt" stroke-miterlimit="10" stroke-linejoin="miter" fill="none" stroke="#000000" d="M 0 0 L 6 0 "/>
<path transform="matrix(0,1.6,-1.6,-0,7.4675829,134.33197)" stroke-width="1.25" stroke-linecap="butt" stroke-miterlimit="10" stroke-linejoin="miter" fill="none" stroke="#000000" d="M 0 0 L 6 0 "/>
</g>
<g id="Layer-1" data-name="P">
</g>
<g id="Layer-1" data-name="P">
<text xml:space="preserve" transform="matrix(1 0 -0 1 29.554879 152.40192)" font-size="11" font-family="TimesNewRomanPSMT"><tspan y="0" x="0 6.118201 11.6182 20.174002 25.674002 31.174002 34.2298 37.2856 42.167398 44.917398 51.636198 57.136198 62.017995 66.899799 72.399799 75.4556 78.5114 84.0114 89.5114 92.2614 98.4654 101.2154 106.097209 110.3784 114.6596 120.1596 128.71541 134.21541 137.27121 140.32701 145.82701 151.32701">Symbolic Execution + assumptions</tspan></text>
</g>
<g id="Layer-1" data-name="P">
<path transform="matrix(1,0,0,1,236.89752,139.13202)" stroke-width="2" stroke-linecap="butt" stroke-miterlimit="4" stroke-linejoin="miter" fill="none" stroke="#000000" d="M 1.48 0 L 2.48 0 L 174.5906 0 L 175.5906 0 "/>
<path transform="matrix(0,-1.6,1.6,0,412.76814,143.932)" stroke-width="1.25" stroke-linecap="butt" stroke-miterlimit="10" stroke-linejoin="miter" fill="none" stroke="#000000" d="M 0 0 L 6 0 "/>
<path transform="matrix(0,1.6,-1.6,-0,238.0975,134.33197)" stroke-width="1.25" stroke-linecap="butt" stroke-miterlimit="10" stroke-linejoin="miter" fill="none" stroke="#000000" d="M 0 0 L 6 0 "/>
</g>
<g id="Layer-1" data-name="P">
</g>
<g id="Layer-1" data-name="P">
<text xml:space="preserve" transform="matrix(1 0 -0 1 308.67 152.40192)" font-size="11" font-family="TimesNewRomanPSMT"><tspan y="0" x="0 3.663 9.163 12.826 17.707802 21.370802 26.252604 31.752604 36.634405">Inference</tspan></text>
</g>
<g id="Layer-1" data-name="P">
</g>
<g id="Layer-1" data-name="P">
</g>
<clipPath id="cp11">
<path transform="matrix(1,0,0,-1,-69.80398,746.0218)" d="M 184.2076 678.9832 L 270.91773 678.9832 L 270.91773 688.9832 L 184.2076 688.9832 Z "/>
</clipPath>
<g clip-path="url(#cp11)">
<text xml:space="preserve" transform="matrix(1 0 -0 1 123.68983 66.191898)" font-size="11" font-family="TimesNewRomanPSMT"><tspan y="0" x="0 6.118201 11.000001 14.055801 19.555802 22.305802 27.187603 32.687604 38.187604 43.687604 46.7434 49.7992 52.854997 58.354997 63.854997">Path conditions</tspan></text>
</g>
<g id="Layer-1" data-name="P">
</g>
<g id="Layer-1" data-name="P">
</g>
<clipPath id="cp12">
<path transform="matrix(1,0,0,-1,-69.80398,746.0218)" d="M 174.6206 611.5016 L 283.7251 611.5016 L 283.7251 622.5016 L 174.6206 622.5016 Z "/>
</clipPath>
<g clip-path="url(#cp12)">
<text xml:space="preserve" transform="matrix(1 0 -0 1 115.53002 132.67346)" font-size="11" font-family="TimesNewRomanPSMT"><tspan y="0" x="0 6.118201 9.7812 15.2812 20.7812 25.663002 31.163002 34.2188 37.274599 40.330396 44.611597 47.667394 50.72319 55.60499 58.35499 63.85499 67.51799 73.01799 76.68099 79.73679 82.792598">Probabilistic profile</tspan></text>
</g>
<g id="Layer-1" data-name="P">
</g>
<clipPath id="cp13">
<path transform="matrix(1,0,0,-1,-69.80398,746.0218)" d="M 0 0 L 612 0 L 612 792 L 0 792 Z "/>
</clipPath>
<g clip-path="url(#cp13)">
<path transform="matrix(1,0,0,-1,-69.80398,746.0218)" d="M 318.1461 734.1003 L 382.8359 734.1003 L 382.8359 693.9908 L 318.1461 693.9908 L 318.1461 734.1003 Z M 318.1461 734.1003 " fill="#ffffff"/>
<path transform="matrix(1,0,0,1,248.3421,11.921509)" stroke-width="2" stroke-linecap="butt" stroke-miterlimit="4" stroke-linejoin="miter" fill="none" stroke="#000000" d="M 0 0 L 64.68977 0 L 64.68977 40.1095 L 0 40.1095 L 0 0 Z M 0 0 "/>
</g>
<g id="Layer-1" data-name="P">
</g>
<clipPath id="cp14">
<path transform="matrix(1,0,0,-1,-69.80398,746.0218)" d="M 319.1461 694.9908 L 381.83586 694.9908 L 381.83586 733.1003 L 319.1461 733.1003 Z "/>
</clipPath>
<g clip-path="url(#cp14)">
<text xml:space="preserve" transform="matrix(1 0 -0 1 257.7712 29.074769)" font-size="11" font-family="TimesNewRomanPSMT"><tspan y="0" x="0 7.337001 12.837001 18.337002 22.6182 25.674002 29.337002 34.2188 37.274599 42.774599 45.830396">Constraint </tspan></text>
<text xml:space="preserve" transform="matrix(1 0 -0 1 266.32743 41.074769)" font-size="11" font-family="TimesNewRomanPSMT"><tspan y="0" x="0 6.118201 11.6182 14.674001 20.174 25.055802">Solver</tspan></text>
</g>
<g id="Layer-1" data-name="P">
</g>
<clipPath id="cp15">
<path transform="matrix(1,0,0,-1,-69.80398,746.0218)" d="M 0 0 L 612 0 L 612 792 L 0 792 Z "/>
</clipPath>
<g clip-path="url(#cp15)">
<path transform="matrix(0,1,-1,-0,277.66783,56.127016)" stroke-width="2" stroke-linecap="butt" stroke-miterlimit="4" stroke-linejoin="miter" fill="none" stroke="#000000" d="M 0 0 L 9.277769 0 L 10.27777 0 "/>
<path transform="matrix(1,0,0,-1,-69.80398,746.0218)" d="M 342.6718 680.6171 L 347.4718 671.0171 L 352.2718 680.6171 Z "/>
</g>
<g id="Layer-1" data-name="P">
<path transform="matrix(1,0,0,-1,-69.80398,746.0218)" d="M 318.1461 667.4307 L 381.4381 667.4307 L 381.4381 627.3212 L 318.1461 627.3212 L 318.1461 667.4307 Z M 318.1461 667.4307 " fill="#ffffff"/>
<path transform="matrix(1,0,0,1,248.3421,78.591068)" stroke-width="2" stroke-linecap="butt" stroke-miterlimit="4" stroke-linejoin="miter" fill="none" stroke="#000000" d="M 0 0 L 63.29194 0 L 63.29194 40.1095 L 0 40.1095 L 0 0 Z M 0 0 "/>
</g>
<g id="Layer-1" data-name="P">
</g>
<g id="Layer-1" data-name="P">
</g>
<clipPath id="cp16">
<path transform="matrix(1,0,0,-1,-69.80398,746.0218)" d="M 329.0864 641.1828 L 370.6853 641.1828 L 370.6853 649.25656 L 329.0864 649.25656 Z "/>
</clipPath>
<g clip-path="url(#cp16)">
<text xml:space="preserve" transform="matrix(1 0 -0 1 259.5927 112.078067)" font-size="11.49514" font-family="STIXGeneral" font-style="italic"><tspan y="-10.24348" x="0">x</tspan></text>
<text xml:space="preserve" transform="matrix(1 0 -0 1 259.5927 117.82556)" font-size="8.161553" font-family="STIXGeneral"><tspan y="-13.11726" x="4.813639">1</tspan></text>
<text xml:space="preserve" transform="matrix(1 0 -0 1 259.5927 112.078067)" font-size="11.49514" font-family="STIXGeneral"><tspan y="-10.24348" x="8.894416">,</tspan></text>
<text xml:space="preserve" transform="matrix(1 0 -0 1 259.5927 112.078067)" font-size="11.49514" font-family="STIXGeneral"><tspan y="-10.24348" x="13.68406">&#x2026;</tspan></text>
<text xml:space="preserve" transform="matrix(1 0 -0 1 259.5927 112.078067)" font-size="11.49514" font-family="STIXGeneral"><tspan y="-10.24348" x="25.1792">,</tspan></text>
<text xml:space="preserve" transform="matrix(1 0 -0 1 259.5927 112.078067)" font-size="11.49514" font-family="STIXGeneral" font-style="italic"><tspan y="-10.24348" x="30.64698">x</tspan></text>
<text xml:space="preserve" transform="matrix(1 0 -0 1 259.5927 117.82556)" font-size="8.161553" font-family="STIXGeneral" font-style="italic"><tspan y="-13.11726" x="35.34694">N</tspan></text>
</g>
<g id="Layer-1" data-name="P">
</g>
<clipPath id="cp17">
<path transform="matrix(1,0,0,-1,-69.80398,746.0218)" d="M 0 0 L 612 0 L 612 792 L 0 792 Z "/>
</clipPath>
<g clip-path="url(#cp17)">
<path transform="matrix(1,0,0,1,317.4353,98.645877)" stroke-width="2" stroke-linecap="butt" stroke-miterlimit="4" stroke-linejoin="miter" fill="none" stroke="#000000" d="M 0 0 L 14.38798 0 L 15.38798 0 "/>
<path transform="matrix(1,0,0,-1,-69.80398,746.0218)" d="M 401.6272 642.5759 L 411.2272 647.3759 L 401.6272 652.1759 Z "/>
</g>
<g id="Layer-1" data-name="P">
<path transform="matrix(1,0,0,-1,-69.80398,746.0218)" d="M 415.4018 667.4307 L 474.0531 667.4307 L 474.0531 627.3212 L 415.4018 627.3212 L 415.4018 667.4307 Z M 415.4018 667.4307 " fill="#ffffff"/>
<path transform="matrix(1,0,0,1,345.5978,78.591068)" stroke-width="2" stroke-linecap="butt" stroke-miterlimit="4" stroke-linejoin="miter" fill="none" stroke="#000000" d="M 0 0 L 58.65131 0 L 58.65131 40.1095 L 0 40.1095 L 0 0 Z M 0 0 "/>
</g>
<g id="Layer-1" data-name="P">
</g>
<clipPath id="cp18">
<path transform="matrix(1,0,0,-1,-69.80398,746.0218)" d="M 416.4018 628.3212 L 473.0531 628.3212 L 473.0531 666.4307 L 416.4018 666.4307 Z "/>
</clipPath>
<g clip-path="url(#cp18)">
<text xml:space="preserve" transform="matrix(1 0 -0 1 357.80574 101.74451)" font-size="11" font-family="TimesNewRomanPSMT"><tspan y="0" x="0 9.7812 17.118203 26.8994">MCMC</tspan></text>
</g>
<g id="Layer-1" data-name="P">
</g>
<clipPath id="cp19">
<path transform="matrix(1,0,0,-1,-69.80398,746.0218)" d="M 0 0 L 612 0 L 612 792 L 0 792 Z "/>
</clipPath>
<g clip-path="url(#cp19)">
<path transform="matrix(0,-1,1,0,375.3612,74.2746)" stroke-width="2" stroke-linecap="butt" stroke-miterlimit="4" stroke-linejoin="miter" fill="none" stroke="#000000" d="M 0 0 L 7.817459 0 L 8.817459 0 "/>
<path transform="matrix(1,0,0,-1,-69.80398,746.0218)" d="M 449.9652 679.5647 L 445.1652 689.1647 L 440.3652 679.5647 Z "/>
</g>
<g id="Layer-1" data-name="P">
<path transform="matrix(1,0,0,-1,-69.80398,746.0218)" d="M 456.8203 726.8973 C 463.499 719.7995 463.499 708.2916 456.8203 701.1938 C 450.1416 694.0959 439.3132 694.0959 432.6345 701.1938 C 425.9558 708.2916 425.9558 719.7995 432.6345 726.8973 C 439.3132 733.9951 450.1416 733.9951 456.8203 726.8973 Z M 456.8203 726.8973 " fill="#ffffff"/>
<path transform="matrix(1,0,0,1,357.8215,13.801086)" stroke-width="2" stroke-linecap="butt" stroke-miterlimit="4" stroke-linejoin="miter" fill="none" stroke="#000000" d="M 29.19485 5.323373 C 35.87358 12.4212 35.87358 23.92906 29.19485 31.02689 C 22.51612 38.12472 11.68777 38.12472 5.009044 31.02689 C -1.669682 23.92906 -1.669682 12.4212 5.009044 5.323373 C 11.68777 -1.774458 22.51612 -1.774458 29.19485 5.323373 Z M 29.19485 5.323373 "/>
</g>
<g id="Layer-1" data-name="P">
</g>
<g id="Layer-1" data-name="P">
</g>
<clipPath id="cp20">
<path transform="matrix(1,0,0,-1,-69.80398,746.0218)" d="M 435.1759 708.5632 L 454.11775 708.5632 L 454.11775 718.74789 L 435.1759 718.74789 Z "/>
</clipPath>
<g clip-path="url(#cp20)">
<text xml:space="preserve" transform="matrix(1 0 -0 1 365.0845 45.288087)" font-size="11.49514" font-family="STIXGeneral" font-style="italic"><tspan y="-10.24348" x="0">q</tspan></text>
<text xml:space="preserve" transform="matrix(1 0 -0 1 365.0845 45.288087)" font-size="11.49514" font-family="STIXGeneral"><tspan y="-10.24348" x="6.823708">(</tspan></text>
<text xml:space="preserve" transform="matrix(1 0 -0 1 365.0845 45.288087)" font-size="11.49514" font-family="STIXGeneral" font-style="italic"><tspan y="-10.24348" x="10.65159">x</tspan></text>
<text xml:space="preserve" transform="matrix(1 0 -0 1 365.0845 45.288087)" font-size="11.49514" font-family="STIXGeneral"><tspan y="-10.24348" x="15.94159">)</tspan></text>
</g>
<g id="Layer-1" data-name="P">
</g>
<g id="Layer-1" data-name="P">
</g>
<g id="Layer-1" data-name="P">
</g>
<clipPath id="cp21">
<path transform="matrix(1,0,0,-1,-69.80398,746.0218)" d="M 527.4317 675.9419 L 544.3861 675.9419 L 544.3861 684.0401 L 527.4317 684.0401 Z "/>
</clipPath>
<g clip-path="url(#cp21)">
<text xml:space="preserve" transform="matrix(1 0 -0 1 458.4899 77.294498)" font-size="11.49514" font-family="STIXGeneral" font-style="italic"><tspan y="-10.24348" x="0">p</tspan></text>
<text xml:space="preserve" transform="matrix(1 0 -0 1 458.4899 83.042118)" font-size="8.161553" font-family="STIXGeneral" font-style="italic"><tspan y="-13.11726" x="5.389669">P</tspan></text>
<text xml:space="preserve" transform="matrix(1 0 -0 1 458.4899 83.042118)" font-size="8.161553" font-family="STIXGeneral" font-style="italic"><tspan y="-13.11726" x="10.46082">C</tspan></text>
</g>
</g>
</g>
</svg>
